<svg width="227" height="31" viewBox="0 0 227 31" fill="none" xmlns="http://www.w3.org/2000/svg">
<path d="M7.66281 25.428L0.750813 17.58L7.66281 9.696H16.5188L9.60681 17.58L16.5188 25.428H7.66281ZM19.1257 19.884C19.1257 17.796 19.4977 15.972 20.2417 14.412C21.0097 12.852 22.0537 11.652 23.3737 10.812C24.6937 9.972 26.1577 9.552 27.7657 9.552C29.0617 9.552 30.2137 9.828 31.2217 10.38C32.2537 10.908 33.0577 11.64 33.6337 12.576V3.36H40.7257V30H33.6337V27.192C33.0817 28.128 32.3017 28.872 31.2937 29.424C30.2857 29.976 29.0977 30.252 27.7297 30.252C26.1217 30.252 24.6577 29.832 23.3377 28.992C22.0417 28.152 21.0097 26.952 20.2417 25.392C19.4977 23.808 19.1257 21.972 19.1257 19.884ZM33.6697 19.884C33.6697 18.588 33.3097 17.568 32.5897 16.824C31.8937 16.08 31.0297 15.708 29.9977 15.708C28.9417 15.708 28.0657 16.08 27.3697 16.824C26.6737 17.544 26.3257 18.564 26.3257 19.884C26.3257 21.18 26.6737 22.212 27.3697 22.98C28.0657 23.724 28.9417 24.096 29.9977 24.096C31.0297 24.096 31.8937 23.724 32.5897 22.98C33.3097 22.236 33.6697 21.204 33.6697 19.884ZM48.3105 7.932C47.0625 7.932 46.0545 7.596 45.2865 6.924C44.5425 6.228 44.1705 5.364 44.1705 4.332C44.1705 3.276 44.5425 2.4 45.2865 1.704C46.0545 1.008 47.0625 0.659998 48.3105 0.659998C49.5345 0.659998 50.5185 1.008 51.2625 1.704C52.0305 2.4 52.4145 3.276 52.4145 4.332C52.4145 5.364 52.0305 6.228 51.2625 6.924C50.5185 7.596 49.5345 7.932 48.3105 7.932ZM51.8025 9.804V30H44.7465V9.804H51.8025ZM65.5047 23.34L69.2847 9.804H76.8087L69.8607 30H61.0767L54.1287 9.804H61.6527L65.5047 23.34Z" fill="#8D13B3"/>
<path d="M84.9382 19.884C84.9382 17.796 85.3702 15.972 86.2342 14.412C87.0982 12.852 88.2982 11.652 89.8342 10.812C91.3942 9.972 93.1702 9.552 95.1622 9.552C97.7302 9.552 99.8902 10.26 101.642 11.676C103.394 13.068 104.522 15.024 105.026 17.544H97.5382C97.1062 16.224 96.2662 15.564 95.0182 15.564C94.1302 15.564 93.4222 15.936 92.8942 16.68C92.3902 17.4 92.1382 18.468 92.1382 19.884C92.1382 21.3 92.3902 22.38 92.8942 23.124C93.4222 23.868 94.1302 24.24 95.0182 24.24C96.2902 24.24 97.1302 23.58 97.5382 22.26H105.026C104.522 24.756 103.394 26.712 101.642 28.128C99.8902 29.544 97.7302 30.252 95.1622 30.252C93.1702 30.252 91.3942 29.832 89.8342 28.992C88.2982 28.152 87.0982 26.952 86.2342 25.392C85.3702 23.832 84.9382 21.996 84.9382 19.884ZM115.013 3.36V30H107.957V3.36H115.013ZM117.88 19.884C117.88 17.796 118.252 15.972 118.996 14.412C119.764 12.852 120.796 11.652 122.092 10.812C123.412 9.972 124.876 9.552 126.484 9.552C127.876 9.552 129.076 9.828 130.084 10.38C131.092 10.932 131.872 11.676 132.424 12.612V9.804H139.48V30H132.424V27.192C131.872 28.128 131.08 28.872 130.048 29.424C129.04 29.976 127.852 30.252 126.484 30.252C124.876 30.252 123.412 29.832 122.092 28.992C120.796 28.152 119.764 26.952 118.996 25.392C118.252 23.808 117.88 21.972 117.88 19.884ZM132.424 19.884C132.424 18.588 132.064 17.568 131.344 16.824C130.648 16.08 129.784 15.708 128.752 15.708C127.696 15.708 126.82 16.08 126.124 16.824C125.428 17.544 125.08 18.564 125.08 19.884C125.08 21.18 125.428 22.212 126.124 22.98C126.82 23.724 127.696 24.096 128.752 24.096C129.784 24.096 130.648 23.724 131.344 22.98C132.064 22.236 132.424 21.204 132.424 19.884ZM152.104 30.252C150.28 30.252 148.648 29.952 147.208 29.352C145.792 28.728 144.664 27.888 143.824 26.832C143.008 25.752 142.552 24.54 142.456 23.196H149.296C149.392 23.844 149.692 24.348 150.196 24.708C150.7 25.068 151.324 25.248 152.068 25.248C152.644 25.248 153.1 25.128 153.436 24.888C153.772 24.648 153.94 24.336 153.94 23.952C153.94 23.448 153.664 23.076 153.112 22.836C152.56 22.596 151.648 22.332 150.376 22.044C148.936 21.756 147.736 21.432 146.776 21.072C145.816 20.712 144.976 20.124 144.256 19.308C143.56 18.492 143.212 17.388 143.212 15.996C143.212 14.796 143.536 13.716 144.184 12.756C144.832 11.772 145.78 10.992 147.028 10.416C148.3 9.84 149.824 9.552 151.6 9.552C154.24 9.552 156.316 10.2 157.828 11.496C159.34 12.792 160.216 14.496 160.456 16.608H154.084C153.964 15.96 153.676 15.468 153.22 15.132C152.788 14.772 152.2 14.592 151.456 14.592C150.88 14.592 150.436 14.7 150.124 14.916C149.836 15.132 149.692 15.432 149.692 15.816C149.692 16.296 149.968 16.668 150.52 16.932C151.072 17.172 151.96 17.424 153.184 17.688C154.648 18 155.86 18.348 156.82 18.732C157.804 19.116 158.656 19.74 159.376 20.604C160.12 21.444 160.492 22.596 160.492 24.06C160.492 25.236 160.144 26.292 159.448 27.228C158.776 28.164 157.804 28.908 156.532 29.46C155.284 29.988 153.808 30.252 152.104 30.252ZM172.565 30.252C170.741 30.252 169.109 29.952 167.669 29.352C166.253 28.728 165.125 27.888 164.285 26.832C163.469 25.752 163.013 24.54 162.917 23.196H169.757C169.853 23.844 170.153 24.348 170.657 24.708C171.161 25.068 171.785 25.248 172.529 25.248C173.105 25.248 173.561 25.128 173.897 24.888C174.233 24.648 174.401 24.336 174.401 23.952C174.401 23.448 174.125 23.076 173.573 22.836C173.021 22.596 172.109 22.332 170.837 22.044C169.397 21.756 168.197 21.432 167.237 21.072C166.277 20.712 165.437 20.124 164.717 19.308C164.021 18.492 163.673 17.388 163.673 15.996C163.673 14.796 163.997 13.716 164.645 12.756C165.293 11.772 166.241 10.992 167.489 10.416C168.761 9.84 170.285 9.552 172.061 9.552C174.701 9.552 176.777 10.2 178.289 11.496C179.801 12.792 180.677 14.496 180.917 16.608H174.545C174.425 15.96 174.137 15.468 173.681 15.132C173.249 14.772 172.661 14.592 171.917 14.592C171.341 14.592 170.897 14.7 170.585 14.916C170.297 15.132 170.153 15.432 170.153 15.816C170.153 16.296 170.429 16.668 170.981 16.932C171.533 17.172 172.421 17.424 173.645 17.688C175.109 18 176.321 18.348 177.281 18.732C178.265 19.116 179.117 19.74 179.837 20.604C180.581 21.444 180.953 22.596 180.953 24.06C180.953 25.236 180.605 26.292 179.909 27.228C179.237 28.164 178.265 28.908 176.993 29.46C175.745 29.988 174.269 30.252 172.565 30.252ZM204.618 9.588V15.96H183.99V9.588H204.618ZM204.618 19.236V25.572H183.99V19.236H204.618ZM209.951 4.62H217.079L212.939 14.772H208.223L209.951 4.62ZM218.915 4.62H226.043L221.903 14.772H217.187L218.915 4.62Z" fill="#D9D9D9"/>
</svg>
