<svg width="72" height="53" viewBox="0 0 72 53" fill="none" xmlns="http://www.w3.org/2000/svg">
<path d="M7.06223 20.6H14.9462V26H0.00623444V0.619998H7.06223V20.6ZM35.5422 34.972C35.1342 34.3 34.5702 33.784 33.8502 33.424C33.1542 33.064 32.3262 32.884 31.3662 32.884C29.5902 32.884 28.1862 33.46 27.1542 34.612C26.1462 35.764 25.6422 37.312 25.6422 39.256C25.6422 41.44 26.1822 43.108 27.2622 44.26C28.3662 45.388 29.9622 45.952 32.0502 45.952C34.5222 45.952 36.2862 44.836 37.3422 42.604H30.2502V37.528H43.4262V44.368C42.8742 45.712 42.0582 46.972 40.9782 48.148C39.9222 49.324 38.5782 50.296 36.9462 51.064C35.3142 51.808 33.4542 52.18 31.3662 52.18C28.8222 52.18 26.5662 51.64 24.5982 50.56C22.6542 49.456 21.1422 47.932 20.0622 45.988C19.0062 44.02 18.4782 41.776 18.4782 39.256C18.4782 36.76 19.0062 34.54 20.0622 32.596C21.1422 30.628 22.6542 29.104 24.5982 28.024C26.5422 26.92 28.7862 26.368 31.3302 26.368C34.5222 26.368 37.1622 27.136 39.2502 28.672C41.3382 30.208 42.6342 32.308 43.1382 34.972H35.5422Z" fill="#8D13B3"/>
<path d="M29.8578 26.252C27.4818 26.252 25.2978 25.7 23.3058 24.596C21.3138 23.468 19.7298 21.92 18.5538 19.952C17.4018 17.96 16.8258 15.716 16.8258 13.22C16.8258 10.724 17.4018 8.492 18.5538 6.524C19.7298 4.532 21.3138 2.984 23.3058 1.88C25.2978 0.775999 27.4818 0.223999 29.8578 0.223999C32.2578 0.223999 34.4418 0.775999 36.4098 1.88C38.4018 2.984 39.9738 4.532 41.1258 6.524C42.2778 8.492 42.8538 10.724 42.8538 13.22C42.8538 15.716 42.2778 17.96 41.1258 19.952C39.9738 21.92 38.4018 23.468 36.4098 24.596C34.4178 25.7 32.2338 26.252 29.8578 26.252ZM29.8578 19.7C31.6578 19.7 33.0738 19.112 34.1058 17.936C35.1618 16.76 35.6898 15.188 35.6898 13.22C35.6898 11.204 35.1618 9.62 34.1058 8.468C33.0738 7.292 31.6578 6.704 29.8578 6.704C28.0338 6.704 26.6058 7.292 25.5738 8.468C24.5418 9.62 24.0258 11.204 24.0258 13.22C24.0258 15.212 24.5418 16.796 25.5738 17.972C26.6058 19.124 28.0338 19.7 29.8578 19.7ZM58.7563 52.252C56.3803 52.252 54.1963 51.7 52.2043 50.596C50.2123 49.468 48.6283 47.92 47.4523 45.952C46.3003 43.96 45.7243 41.716 45.7243 39.22C45.7243 36.724 46.3003 34.492 47.4523 32.524C48.6283 30.532 50.2123 28.984 52.2043 27.88C54.1963 26.776 56.3803 26.224 58.7563 26.224C61.1563 26.224 63.3403 26.776 65.3083 27.88C67.3003 28.984 68.8723 30.532 70.0243 32.524C71.1763 34.492 71.7523 36.724 71.7523 39.22C71.7523 41.716 71.1763 43.96 70.0243 45.952C68.8723 47.92 67.3003 49.468 65.3083 50.596C63.3163 51.7 61.1323 52.252 58.7563 52.252ZM58.7563 45.7C60.5563 45.7 61.9723 45.112 63.0043 43.936C64.0603 42.76 64.5883 41.188 64.5883 39.22C64.5883 37.204 64.0603 35.62 63.0043 34.468C61.9723 33.292 60.5563 32.704 58.7563 32.704C56.9323 32.704 55.5043 33.292 54.4723 34.468C53.4403 35.62 52.9243 37.204 52.9243 39.22C52.9243 41.212 53.4403 42.796 54.4723 43.972C55.5043 45.124 56.9323 45.7 58.7563 45.7Z" fill="#D9D9D9"/>
</svg>
